<?xml version="1.0" encoding="UTF-8" standalone="no"?><!DOCTYPE svg PUBLIC "-//W3C//DTD SVG 1.1//EN" "http://www.w3.org/Graphics/SVG/1.1/DTD/svg11.dtd"><svg width="100%" height="100%" viewBox="0 0 125 125" version="1.1" xmlns="http://www.w3.org/2000/svg" xmlns:xlink="http://www.w3.org/1999/xlink" xml:space="preserve" xmlns:serif="http://www.serif.com/" style="fill-rule:evenodd;clip-rule:evenodd;stroke-linejoin:round;stroke-miterlimit:2;"><g><path d="M42.939,30.1c0,-0 -12.656,-0 -12.656,12.656l-0,38.741c-0,-0 -0,12.656 12.656,12.656l38.741,0c-0,0 12.656,0 12.656,-12.656l-0,-38.741c-0,0 -0,-12.656 -12.656,-12.656l-38.741,-0Z" style="fill:#231f20;fill-rule:nonzero;"/><g><clipPath id="_clip1"><path d="M47.252,62.691c-0.8,-0.391 -1.457,-0.91 -1.972,-1.557c-0.516,-0.646 -0.891,-1.375 -1.125,-2.197c-0.235,-0.818 -0.35,-1.646 -0.35,-2.496c-0,-0.85 0.115,-1.685 0.35,-2.507c0.234,-0.815 0.609,-1.55 1.125,-2.193c0.515,-0.644 1.172,-1.166 1.972,-1.557c0.793,-0.393 1.74,-0.59 2.834,-0.59c1.094,-0 2.037,0.197 2.834,0.59c0.797,0.391 1.453,0.913 1.969,1.557c0.519,0.643 0.891,1.378 1.125,2.193c0.234,0.822 0.35,1.654 0.35,2.507c0,0.847 -0.116,1.678 -0.35,2.497c-0.234,0.821 -0.606,1.55 -1.125,2.196c-0.516,0.647 -1.172,1.166 -1.969,1.557c-0.797,0.397 -1.74,0.59 -2.834,0.59c-1.094,0 -2.041,-0.194 -2.834,-0.59m-1.785,-16.728c-1.422,0.543 -2.656,1.312 -3.703,2.296c-1.047,0.985 -1.866,2.172 -2.459,3.56c-0.594,1.39 -0.891,2.931 -0.891,4.622c0,1.684 0.297,3.222 0.891,4.615c0.593,1.391 1.412,2.575 2.459,3.563c1.047,0.987 2.281,1.753 3.703,2.3c1.422,0.544 2.963,0.819 4.619,0.819c1.656,-0 3.194,-0.275 4.616,-0.819c1.421,-0.55 2.656,-1.316 3.703,-2.3c1.047,-0.985 1.865,-2.169 2.459,-3.563c0.594,-1.394 0.894,-2.931 0.894,-4.615c-0,-1.691 -0.3,-3.228 -0.894,-4.622c-0.594,-1.388 -1.412,-2.575 -2.459,-3.56c-1.047,-0.984 -2.282,-1.753 -3.703,-2.296c-1.422,-0.547 -2.96,-0.822 -4.616,-0.822c-1.656,-0 -3.197,0.275 -4.619,0.822"/></clipPath><g clip-path="url(#_clip1)"><rect x="38.414" y="45.141" width="23.344" height="22.594" style="fill:url(#_Linear2);"/></g></g><g><clipPath id="_clip3"><path d="M62.605,65.334l-8.388,8.388l8.388,12.412l8.387,-12.412l-8.387,-8.388Z"/></clipPath><g clip-path="url(#_clip3)"><path d="M62.605,56.947l18.787,18.787l-18.787,18.788l-18.788,-18.788l18.788,-18.787Z" style="fill:url(#_Linear4);fill-rule:nonzero;"/></g></g><g><path d="M81.398,58.937c-0.234,0.822 -0.609,1.55 -1.125,2.194c-0.515,0.647 -1.171,1.166 -1.968,1.56c-0.797,0.393 -1.744,0.587 -2.838,0.587c-1.094,0 -2.037,-0.197 -2.834,-0.587c-0.797,-0.394 -1.453,-0.913 -1.969,-1.56c-0.516,-0.644 -0.891,-1.372 -1.125,-2.194c-0.234,-0.821 -0.353,-1.65 -0.353,-2.503c-0,-0.847 0.119,-1.681 0.353,-2.5c0.234,-0.818 0.609,-1.553 1.125,-2.197c0.516,-0.646 1.172,-1.165 1.969,-1.559c0.797,-0.391 1.74,-0.587 2.834,-0.587c1.094,-0 2.041,0.196 2.838,0.587c0.797,0.394 1.453,0.913 1.968,1.559c0.516,0.644 0.891,1.379 1.125,2.197c0.235,0.819 0.35,1.653 0.35,2.5c0.004,0.853 -0.112,1.685 -0.35,2.503m4.854,-7.115c-0.594,-1.391 -1.416,-2.578 -2.46,-3.563c-1.05,-0.984 -2.284,-1.75 -3.703,-2.297c-1.425,-0.546 -2.962,-0.818 -4.619,-0.818c-1.656,-0 -3.193,0.272 -4.615,0.818c-1.422,0.547 -2.657,1.313 -3.703,2.297c-1.047,0.985 -1.869,2.172 -2.463,3.563c-0.594,1.39 -0.891,2.928 -0.891,4.615c0,1.688 0.297,3.225 0.891,4.619c0.594,1.391 1.416,2.578 2.463,3.566c1.046,0.981 2.281,1.75 3.703,2.294c1.422,0.543 2.959,0.822 4.615,0.822c1.657,-0 3.194,-0.275 4.619,-0.822c1.419,-0.547 2.653,-1.313 3.703,-2.294c1.044,-0.985 1.866,-2.172 2.46,-3.566c0.593,-1.393 0.89,-2.931 0.89,-4.618c0,-1.688 -0.297,-3.229 -0.89,-4.616" style="fill:#fff;fill-rule:nonzero;"/></g></g><defs><linearGradient id="_Linear2" x1="0" y1="0" x2="1" y2="0" gradientUnits="userSpaceOnUse" gradientTransform="matrix(23.3428,0,0,23.3428,38.4119,56.4296)"><stop offset="0" style="stop-color:#00a5d6;stop-opacity:1"/><stop offset="0" style="stop-color:#00a5d6;stop-opacity:1"/><stop offset="0.13" style="stop-color:#06a7cf;stop-opacity:1"/><stop offset="0.32" style="stop-color:#18abbc;stop-opacity:1"/><stop offset="0.55" style="stop-color:#36b39c;stop-opacity:1"/><stop offset="0.8" style="stop-color:#5fbe70;stop-opacity:1"/><stop offset="0.99" style="stop-color:#81c74b;stop-opacity:1"/><stop offset="1" style="stop-color:#81c74b;stop-opacity:1"/></linearGradient><linearGradient id="_Linear4" x1="0" y1="0" x2="1" y2="0" gradientUnits="userSpaceOnUse" gradientTransform="matrix(10.4006,10.4006,-10.4006,10.4006,57.4313,70.5302)"><stop offset="0" style="stop-color:#00a5d6;stop-opacity:1"/><stop offset="0" style="stop-color:#00a5d6;stop-opacity:1"/><stop offset="0.13" style="stop-color:#06a7cf;stop-opacity:1"/><stop offset="0.32" style="stop-color:#18abbc;stop-opacity:1"/><stop offset="0.55" style="stop-color:#36b39c;stop-opacity:1"/><stop offset="0.8" style="stop-color:#5fbe70;stop-opacity:1"/><stop offset="0.99" style="stop-color:#81c74b;stop-opacity:1"/><stop offset="1" style="stop-color:#81c74b;stop-opacity:1"/></linearGradient></defs></svg>