<?xml version="1.0" encoding="UTF-8" standalone="no"?>
<!DOCTYPE svg PUBLIC "-//W3C//DTD SVG 1.1//EN" "http://www.w3.org/Graphics/SVG/1.1/DTD/svg11.dtd">
<svg width="100%" height="100%" viewBox="0 0 591 591" version="1.1" xmlns="http://www.w3.org/2000/svg" xmlns:xlink="http://www.w3.org/1999/xlink" xml:space="preserve" xmlns:serif="http://www.serif.com/" style="fill-rule:evenodd;clip-rule:evenodd;stroke-linejoin:round;stroke-miterlimit:2;">
    <g transform="matrix(4.16667,0,0,4.16667,-552.913,-2626.12)">
        <path d="M255.885,678.325C254.571,675.25 252.756,672.621 250.44,670.443C248.123,668.265 245.392,666.571 242.246,665.361C239.099,664.152 235.694,663.546 232.03,663.546C228.365,663.546 224.96,664.152 221.814,665.361C218.667,666.571 215.937,668.265 213.621,670.443C211.303,672.621 209.488,675.25 208.176,678.325C206.861,681.403 206.205,684.808 206.205,688.542C206.205,692.275 206.861,695.682 208.176,698.758C209.488,701.835 211.303,704.462 213.621,706.64C215.937,708.818 218.667,710.513 221.814,711.722C224.96,712.931 228.365,713.537 232.03,713.537C235.694,713.537 239.099,712.931 242.246,711.722C245.392,710.513 248.123,708.818 250.44,706.64C252.756,704.462 254.571,701.835 255.885,698.758C257.198,695.682 257.855,692.275 257.855,688.542C257.855,684.808 257.198,681.403 255.885,678.325ZM245.15,694.077C244.632,695.888 243.802,697.506 242.661,698.933C241.52,700.36 240.068,701.509 238.305,702.38C236.542,703.25 234.45,703.684 232.03,703.684C229.609,703.684 227.519,703.25 225.756,702.38C223.992,701.509 222.54,700.36 221.399,698.933C220.259,697.506 219.429,695.888 218.91,694.077C218.392,692.267 218.132,690.421 218.132,688.542C218.132,686.662 218.392,684.817 218.91,683.007C219.429,681.197 220.259,679.578 221.399,678.15C222.54,676.724 223.992,675.575 225.756,674.705C227.519,673.835 229.609,673.399 232.03,673.399C234.45,673.399 236.542,673.835 238.305,674.705C240.068,675.575 241.52,676.724 242.661,678.15C243.802,679.578 244.632,681.197 245.15,683.007C245.669,684.817 245.928,686.662 245.928,688.542C245.928,690.421 245.669,692.267 245.15,694.077Z" style="fill:rgb(35,31,32);fill-rule:nonzero;"/>
    </g>
    <g transform="matrix(4.16667,0,0,4.16667,-552.913,-2626.12)">
        <path d="M200.37,678.325C199.056,675.25 197.241,672.621 194.925,670.443C192.607,668.265 189.877,666.571 186.731,665.361C183.584,664.152 180.179,663.546 176.515,663.546C172.849,663.546 169.445,664.152 166.299,665.361C163.152,666.571 160.421,668.265 158.106,670.443C155.788,672.621 153.973,675.25 152.66,678.325C151.346,681.403 150.69,684.808 150.69,688.542C150.69,692.275 151.346,695.682 152.66,698.758C153.973,701.835 155.788,704.462 158.106,706.64C160.421,708.818 163.152,710.513 166.299,711.722C169.445,712.931 172.849,713.537 176.515,713.537C180.179,713.537 183.584,712.931 186.731,711.722C189.877,710.513 192.607,708.818 194.925,706.64C197.241,704.462 199.056,701.835 200.37,698.758C201.683,695.682 202.341,692.275 202.341,688.542C202.341,684.808 201.683,681.403 200.37,678.325ZM189.635,694.077C189.117,695.888 188.287,697.506 187.146,698.933C186.005,700.36 184.553,701.509 182.79,702.38C181.027,703.25 178.935,703.684 176.515,703.684C174.094,703.684 172.004,703.25 170.24,702.38C168.477,701.509 167.025,700.36 165.884,698.933C164.743,697.506 163.914,695.888 163.395,694.077C162.877,692.267 162.617,690.421 162.617,688.542C162.617,686.662 162.877,684.817 163.395,683.007C163.914,681.197 164.743,679.578 165.884,678.15C167.025,676.724 168.477,675.575 170.24,674.705C172.004,673.835 174.094,673.399 176.515,673.399C178.935,673.399 181.027,673.835 182.79,674.705C184.553,675.575 186.005,676.724 187.146,678.15C188.287,679.578 189.117,681.197 189.635,683.007C190.154,684.817 190.413,686.662 190.413,688.542C190.413,690.421 190.154,692.267 189.635,694.077Z" style="fill:white;fill-rule:nonzero;"/>
    </g>
    <g transform="matrix(4.16667,0,0,4.16667,-552.913,-2626.12)">
        <path d="M204.217,708.228L185.658,726.787L204.217,754.255L222.775,726.787L204.217,708.228Z" style="fill:white;fill-rule:nonzero;"/>
    </g>
</svg>
