<?xml version="1.0" encoding="UTF-8" standalone="no"?><!DOCTYPE svg PUBLIC "-//W3C//DTD SVG 1.1//EN" "http://www.w3.org/Graphics/SVG/1.1/DTD/svg11.dtd"><svg width="100%" height="100%" viewBox="0 0 125 125" version="1.1" xmlns="http://www.w3.org/2000/svg" xmlns:xlink="http://www.w3.org/1999/xlink" xml:space="preserve" xmlns:serif="http://www.serif.com/" style="fill-rule:evenodd;clip-rule:evenodd;stroke-linejoin:round;stroke-miterlimit:2;"><g><clipPath id="_clip1"><path d="M42.938,30.281c-0.001,0 -12.657,0 -12.657,12.656l0,38.744c0,0 0,12.656 12.656,12.656l38.741,0c0,0 12.656,0 12.656,-12.656l0,-38.744c0,0 0,-12.656 -12.656,-12.656l-38.741,0Z"/></clipPath><g clip-path="url(#_clip1)"><path d="M72.734,0l51.885,72.738l-72.738,51.884l-51.881,-72.741l72.734,-51.881Z" style="fill:url(#_Linear2);fill-rule:nonzero;"/></g></g><g><path d="M56.016,59.122c-0.235,0.819 -0.61,1.55 -1.125,2.194c-0.516,0.647 -1.172,1.165 -1.969,1.559c-0.797,0.394 -1.744,0.588 -2.838,0.588c-1.093,-0 -2.037,-0.194 -2.834,-0.588c-0.797,-0.394 -1.453,-0.912 -1.969,-1.559c-0.515,-0.644 -0.89,-1.375 -1.125,-2.194c-0.234,-0.819 -0.353,-1.653 -0.353,-2.503c0,-0.847 0.119,-1.681 0.353,-2.5c0.235,-0.819 0.61,-1.55 1.125,-2.194c0.516,-0.647 1.172,-1.166 1.969,-1.559c0.797,-0.391 1.741,-0.588 2.834,-0.588c1.094,0 2.041,0.197 2.838,0.588c0.797,0.393 1.453,0.912 1.969,1.559c0.515,0.644 0.89,1.375 1.125,2.194c0.234,0.819 0.35,1.653 0.35,2.5c-0,0.85 -0.116,1.684 -0.35,2.503m4.85,-7.119c-0.594,-1.391 -1.416,-2.578 -2.46,-3.562c-1.05,-0.985 -2.284,-1.75 -3.703,-2.297c-1.425,-0.547 -2.962,-0.819 -4.619,-0.819c-1.656,-0 -3.193,0.272 -4.615,0.819c-1.422,0.547 -2.657,1.312 -3.703,2.297c-1.047,0.984 -1.869,2.171 -2.463,3.562c-0.594,1.391 -0.89,2.928 -0.89,4.616c-0,1.687 0.296,3.228 0.89,4.618c0.594,1.391 1.416,2.579 2.463,3.563c1.047,0.984 2.281,1.75 3.703,2.297c1.422,0.547 2.959,0.822 4.615,0.822c1.657,-0 3.194,-0.275 4.619,-0.822c1.419,-0.547 2.653,-1.313 3.703,-2.297c1.044,-0.984 1.866,-2.172 2.46,-3.563c0.593,-1.39 0.89,-2.931 0.89,-4.618c0,-1.688 -0.297,-3.225 -0.89,-4.616" style="fill:#fff;fill-rule:nonzero;"/></g><path d="M62.603,65.519l-8.387,8.384l8.387,12.413l8.388,-12.413l-8.388,-8.384Z" style="fill:#fff;fill-rule:nonzero;"/><g><path d="M81.4,59.122c-0.234,0.819 -0.609,1.55 -1.125,2.194c-0.516,0.647 -1.172,1.165 -1.969,1.559c-0.797,0.394 -1.743,0.588 -2.837,0.588c-1.094,-0 -2.038,-0.194 -2.835,-0.588c-0.797,-0.394 -1.453,-0.912 -1.968,-1.559c-0.516,-0.644 -0.891,-1.375 -1.125,-2.194c-0.235,-0.819 -0.354,-1.653 -0.354,-2.503c0,-0.847 0.119,-1.681 0.354,-2.5c0.234,-0.819 0.609,-1.55 1.125,-2.194c0.515,-0.647 1.171,-1.166 1.968,-1.559c0.797,-0.391 1.741,-0.588 2.835,-0.588c1.093,0 2.04,0.197 2.837,0.588c0.797,0.393 1.453,0.912 1.969,1.559c0.516,0.644 0.891,1.375 1.125,2.194c0.234,0.819 0.35,1.653 0.35,2.5c0,0.85 -0.116,1.684 -0.35,2.503m4.85,-7.119c-0.594,-1.391 -1.416,-2.578 -2.459,-3.562c-1.05,-0.985 -2.285,-1.75 -3.703,-2.297c-1.425,-0.547 -2.963,-0.819 -4.619,-0.819c-1.656,-0 -3.194,0.272 -4.616,0.819c-1.422,0.547 -2.656,1.312 -3.703,2.297c-1.047,0.984 -1.869,2.171 -2.462,3.562c-0.594,1.391 -0.891,2.928 -0.891,4.616c-0,1.687 0.297,3.228 0.891,4.618c0.593,1.391 1.415,2.579 2.462,3.563c1.047,0.984 2.281,1.75 3.703,2.297c1.422,0.547 2.96,0.822 4.616,0.822c1.656,-0 3.194,-0.275 4.619,-0.822c1.418,-0.547 2.653,-1.313 3.703,-2.297c1.043,-0.984 1.865,-2.172 2.459,-3.563c0.594,-1.39 0.891,-2.931 0.891,-4.618c-0,-1.688 -0.297,-3.225 -0.891,-4.616" style="fill-rule:nonzero;"/></g><defs><linearGradient id="_Linear2" x1="0" y1="0" x2="1" y2="0" gradientUnits="userSpaceOnUse" gradientTransform="matrix(47.6756,66.8386,-66.8386,47.6756,39.5341,30.3451)"><stop offset="0" style="stop-color:#00a5d6;stop-opacity:1"/><stop offset="0" style="stop-color:#00a5d6;stop-opacity:1"/><stop offset="0.13" style="stop-color:#06a7cf;stop-opacity:1"/><stop offset="0.32" style="stop-color:#18abbc;stop-opacity:1"/><stop offset="0.55" style="stop-color:#36b39c;stop-opacity:1"/><stop offset="0.8" style="stop-color:#5fbe70;stop-opacity:1"/><stop offset="0.99" style="stop-color:#81c74b;stop-opacity:1"/><stop offset="1" style="stop-color:#81c74b;stop-opacity:1"/></linearGradient></defs></svg>