<?xml version="1.0" encoding="UTF-8" standalone="no"?>
<!DOCTYPE svg PUBLIC "-//W3C//DTD SVG 1.1//EN" "http://www.w3.org/Graphics/SVG/1.1/DTD/svg11.dtd">
<svg width="100%" height="100%" viewBox="0 0 591 591" version="1.1" xmlns="http://www.w3.org/2000/svg" xmlns:xlink="http://www.w3.org/1999/xlink" xml:space="preserve" xmlns:serif="http://www.serif.com/" style="fill-rule:evenodd;clip-rule:evenodd;stroke-linejoin:round;stroke-miterlimit:2;">
    <g transform="matrix(4.16667,0,0,4.16667,-1336.85,-2626.12)">
        <path d="M444.031,678.325C442.717,675.25 440.902,672.621 438.586,670.443C436.269,668.265 433.538,666.571 430.393,665.361C427.245,664.152 423.841,663.546 420.177,663.546C416.511,663.546 413.106,664.152 409.96,665.361C406.813,666.571 404.083,668.265 401.767,670.443C399.449,672.621 397.634,675.25 396.322,678.325C395.008,681.403 394.351,684.808 394.351,688.542C394.351,692.275 395.008,695.682 396.322,698.758C397.634,701.835 399.449,704.462 401.767,706.64C404.083,708.818 406.813,710.513 409.96,711.722C413.106,712.931 416.511,713.537 420.177,713.537C423.841,713.537 427.245,712.931 430.393,711.722C433.538,710.513 436.269,708.818 438.586,706.64C440.902,704.462 442.717,701.835 444.031,698.758C445.344,695.682 446.002,692.275 446.002,688.542C446.002,684.808 445.344,681.403 444.031,678.325ZM433.297,694.077C432.778,695.888 431.948,697.506 430.807,698.933C429.667,700.36 428.215,701.509 426.451,702.38C424.688,703.25 422.596,703.684 420.177,703.684C417.755,703.684 415.665,703.25 413.902,702.38C412.138,701.509 410.686,700.36 409.546,698.933C408.405,697.506 407.575,695.888 407.056,694.077C406.538,692.267 406.279,690.421 406.279,688.542C406.279,686.662 406.538,684.817 407.056,683.007C407.575,681.197 408.405,679.578 409.546,678.15C410.686,676.724 412.138,675.575 413.902,674.705C415.665,673.835 417.755,673.399 420.177,673.399C422.596,673.399 424.688,673.835 426.451,674.705C428.215,675.575 429.667,676.724 430.807,678.15C431.948,679.578 432.778,681.197 433.297,683.007C433.815,684.817 434.074,686.662 434.074,688.542C434.074,690.421 433.815,692.267 433.297,694.077Z" style="fill:white;fill-rule:nonzero;"/>
    </g>
    <g transform="matrix(4.16667,0,0,4.16667,-1336.85,-2626.12)">
        <path d="M388.516,678.325C387.202,675.25 385.387,672.621 383.071,670.443C380.754,668.265 378.023,666.571 374.877,665.361C371.73,664.152 368.325,663.546 364.661,663.546C360.996,663.546 357.591,664.152 354.445,665.361C351.298,666.571 348.568,668.265 346.252,670.443C343.934,672.621 342.119,675.25 340.807,678.325C339.492,681.403 338.836,684.808 338.836,688.542C338.836,692.275 339.492,695.682 340.807,698.758C342.119,701.835 343.934,704.462 346.252,706.64C348.568,708.818 351.298,710.513 354.445,711.722C357.591,712.931 360.996,713.537 364.661,713.537C368.325,713.537 371.73,712.931 374.877,711.722C378.023,710.513 380.754,708.818 383.071,706.64C385.387,704.462 387.202,701.835 388.516,698.758C389.829,695.682 390.487,692.275 390.487,688.542C390.487,684.808 389.829,681.403 388.516,678.325ZM377.781,694.077C377.263,695.888 376.433,697.506 375.292,698.933C374.151,700.36 372.699,701.509 370.936,702.38C369.173,703.25 367.081,703.684 364.661,703.684C362.24,703.684 360.15,703.25 358.387,702.38C356.623,701.509 355.171,700.36 354.03,698.933C352.89,697.506 352.06,695.888 351.541,694.077C351.023,692.267 350.763,690.421 350.763,688.542C350.763,686.662 351.023,684.817 351.541,683.007C352.06,681.197 352.89,679.578 354.03,678.15C355.171,676.724 356.623,675.575 358.387,674.705C360.15,673.835 362.24,673.399 364.661,673.399C367.081,673.399 369.173,673.835 370.936,674.705C372.699,675.575 374.151,676.724 375.292,678.15C376.433,679.578 377.263,681.197 377.781,683.007C378.3,684.817 378.559,686.662 378.559,688.542C378.559,690.421 378.3,692.267 377.781,694.077Z" style="fill:url(#_Linear1);"/>
    </g>
    <g transform="matrix(4.16667,0,0,4.16667,-1336.85,-2626.12)">
        <path d="M392.363,708.228L373.804,726.787L392.363,754.255L410.922,726.787L392.363,708.228Z" style="fill:url(#_Linear2);"/>
    </g>
    <defs>
        <linearGradient id="_Linear1" x1="0" y1="0" x2="1" y2="0" gradientUnits="userSpaceOnUse" gradientTransform="matrix(94.4329,105.989,-105.989,94.4329,329.064,655.054)"><stop offset="0" style="stop-color:white;stop-opacity:1"/><stop offset="0.1" style="stop-color:rgb(0,175,225);stop-opacity:1"/><stop offset="1" style="stop-color:rgb(151,187,115);stop-opacity:1"/></linearGradient>
        <linearGradient id="_Linear2" x1="0" y1="0" x2="1" y2="0" gradientUnits="userSpaceOnUse" gradientTransform="matrix(94.4329,105.989,-105.989,94.4329,329.064,655.054)"><stop offset="0" style="stop-color:white;stop-opacity:1"/><stop offset="0.1" style="stop-color:rgb(0,175,225);stop-opacity:1"/><stop offset="1" style="stop-color:rgb(151,187,115);stop-opacity:1"/></linearGradient>
    </defs>
</svg>
